<svg xmlns="http://www.w3.org/2000/svg" viewBox="0 0 213.9 112.75"><defs><style>.cls-1{fill:#1d1d1b;}</style></defs><g id="Camada_2" data-name="Camada 2"><g id="Camada_1-2" data-name="Camada 1"><path class="cls-1" d="M123.18,19.88c4.5-1,8.69-1.93,12.92-2.76a40.45,40.45,0,0,1,5.71-.68c2-.11,2.87.84,2.49,2.79-1.08,5.5-2.29,11-3.45,16.48-.12.53-.3,1-.45,1.56l.27.41a74,74,0,0,0,7.51-2.46A67,67,0,0,0,155.92,31c1.83-1.11,2.88-1.45,3.81-.63,1.3,1.15.77,2.44.21,3.73C155.71,43.8,150.25,52.69,142,59.6c-4.39,3.67-9.12,6.78-14.83,8-8,1.72-15-.52-21.26-5.56-2.33-1.88-2.59-2-4.94-.19A30.68,30.68,0,0,1,80,68.25c-11.48-.7-23.08-8.79-25.9-20.2C51,35.47,57.55,22.35,69.51,18.87a23.18,23.18,0,0,1,5.4-.72c1.37-.06,2.11.9,2.11,2.27A1.91,1.91,0,0,1,75,22.58c-7.46-.49-14.5,6.05-16.48,14a20.83,20.83,0,0,0,9.89,23.16c9.66,5.7,19.4,5.59,28.9-.64.35-.24.69-.5,1-.77,1.74-1.42,1.77-1.77.34-3.5C90.56,45.06,90.18,33,97.5,22.63c6.8-9.6,16-16.08,26.56-20.85,1-.46,2.06-.91,3.1-1.33,1.76-.71,2.85-.58,3.58.43.94,1.31.26,2.39-.53,3.43a37.15,37.15,0,0,0-6.16,12.24C123.74,17.61,123.49,18.69,123.18,19.88Zm-.61-12.24c-7.25,3.79-13.89,8.27-19.14,14.58A26.63,26.63,0,0,0,97,35.61a41.25,41.25,0,0,0,.08,6.57l.58.11c1.13-4.47,4.23-7.67,6.89-11.15a9.11,9.11,0,0,1,2.25-2,1.9,1.9,0,0,1,2.61.64,1.89,1.89,0,0,1,.13,2.56,23.08,23.08,0,0,1-1.85,2.11c-3.24,3.34-5.62,7.14-6.23,11.85a8.93,8.93,0,0,0,2.13,6.93c5.75-6,10-12.54,12.07-20.4.92-3.53,1.59-7.12,2.34-10.69A64.08,64.08,0,0,1,122.57,7.64Zm30.09,30.73c-6.06,2.84-12.51,4-19,5.08-8.93,1.44-17.05,4.67-24,10.64-.9.77-1.82,1.53-2.76,2.33,2,1.84,4.18,2.82,6.68,2.41a27.69,27.69,0,0,0,5.77-1.7c3.1-1.25,5.45-3.58,7.87-5.81a2.17,2.17,0,0,1,3.36,0,2.2,2.2,0,0,1-.21,3.36c-3.33,3.05-6.81,5.9-11.15,7.44-.53.19-1,.42-1.55.63a17.31,17.31,0,0,0,11-.34c5.21-1.73,9.43-5,13.19-8.85A59.33,59.33,0,0,0,152.66,38.37ZM139.55,21.46l-.43-.48C134.07,22.19,129,23.37,124,24.63A3,3,0,0,0,121.62,27a47.81,47.81,0,0,1-1.14,5.18c-1,3.29-2.27,6.52-3.41,9.78-.23.63-.44,1.26-.74,2.16l1.2-.53a60.56,60.56,0,0,1,16.1-4.71,2.56,2.56,0,0,0,1.71-1.33,70.18,70.18,0,0,0,2.29-7.21C138.38,27.4,138.92,24.42,139.55,21.46Z"/><path class="cls-1" d="M127.25,85.41v-5h5.2c0,.61.07,1.16.07,1.71,0,9.43,0,18.86,0,28.29,0,1.34-.34,1.86-1.72,1.72-1.14-.11-2.31,0-3.58,0v-5.44a4,4,0,0,0-.67.49,14.42,14.42,0,0,1-24.41-2.65c-3.19-6.63-3-13.36,1.63-19.36,5.64-7.39,17.82-7.09,22.78,0a1.62,1.62,0,0,1,.18.55Zm-.06,10.76c-.08-.84-.13-1.69-.25-2.52a10.66,10.66,0,0,0-8.2-9,10.42,10.42,0,0,0-11.47,4.92,14,14,0,0,0-1.43,9,10.58,10.58,0,0,0,12.54,9.2C123.73,106.8,127.16,102.25,127.19,96.17Z"/><path class="cls-1" d="M208.67,85.39v-5h5.23v31.63h-5.21v-5.52c-.81.91-1.32,1.55-1.9,2.12A14.6,14.6,0,0,1,183.3,104c-2.64-6.25-2.48-12.52,1.49-18.22,5.53-7.95,18.14-7.83,23.22-.6a2.24,2.24,0,0,1,.2.53Zm-11,22.58a10.11,10.11,0,0,0,9.2-5.18,13.55,13.55,0,0,0,1.45-9.24,10.72,10.72,0,0,0-7.85-8.8,10.39,10.39,0,0,0-11,3.72c-2.83,3.93-3,8.28-1.47,12.71A10.11,10.11,0,0,0,197.71,108Z"/><path class="cls-1" d="M41.5,96.34c0-8.41,4.62-14.49,12.23-16.14S68.49,81.57,71.8,88c4.26,8.33,1.71,21.76-11,24.27C50.64,114.34,41.41,107.77,41.5,96.34Zm5.36-.19c.12,1.07.17,2.15.37,3.2.77,4.13,3,7.11,7.14,8.21a10.36,10.36,0,0,0,11-3.14c2.73-3,3.18-6.72,2.64-10.56-.55-4-2.54-7.17-6.48-8.65A10.33,10.33,0,0,0,50.49,87C47.75,89.4,46.92,92.62,46.86,96.15Z"/><path class="cls-1" d="M22.75,71.73v4.18H5.32V89.62H19.45v4.3H5.28v18.13H0V71.73Z"/><path class="cls-1" d="M177,80.29c.18.33.22.37.22.41.45,4,.45,4-3.53,4H169v18c0,.38,0,.75,0,1.13.21,2.62,1.27,3.67,3.91,3.8,1.4.06,2.8,0,4.42,0,0,1.33,0,2.53,0,3.73a1.09,1.09,0,0,1-.76.71,47.74,47.74,0,0,1-7.29-.34,6.24,6.24,0,0,1-5.37-6.32c-.19-4.17-.17-8.35-.21-12.52,0-2.67,0-5.33,0-8.18H159.7V80.37h3.94c0-2.26.08-4.35,0-6.44-.07-1.37.36-1.84,1.72-1.71,1.11.11,2.25,0,3.53,0v8.05Z"/><path class="cls-1" d="M138.55,84.59V80.4h4.07c0-2.23,0-4.27,0-6.32,0-1.81,0-1.81,1.85-1.84,3.43,0,3.43,0,3.42,3.37,0,1.12.06,2.25,0,3.37s.26,1.42,1.33,1.38c2.16-.07,4.32,0,6.48,0a2.65,2.65,0,0,1,.48.16,32,32,0,0,1-.05,3.38c0,.29-.65.73-1,.75-2,.07-3.94.07-5.91,0-.94,0-1.33.22-1.32,1.25,0,5.87,0,11.74,0,17.6,0,2.9,1.25,4.1,4.12,4.14,1.31,0,2.62,0,4.14,0,0,1.31,0,2.51,0,3.71,0,.27-.49.73-.74.72a48.53,48.53,0,0,1-7.15-.31,6.19,6.19,0,0,1-5.5-6.35c-.16-5.77-.1-11.54-.12-17.32,0-3.31,0-3.31-3.35-3.43C139.09,84.67,138.91,84.64,138.55,84.59Z"/><path class="cls-1" d="M29.28,69.33a2.06,2.06,0,0,1,.35-.13c4.86-.37,4.86-.37,4.86,4.41,0,12.26,0,24.51,0,36.76,0,1.42-.36,1.95-1.8,1.79a32.7,32.7,0,0,0-3.44,0Z"/><path class="cls-1" d="M85.85,112.13c-1.63,0-3.07,0-4.51,0-.29,0-.62-.51-.78-.85a2.39,2.39,0,0,1,0-1q0-14.14,0-28.28V80.42h5.26v4.26A42.23,42.23,0,0,1,90.36,81a8.64,8.64,0,0,1,5.74-1.16v5.19c-1,.1-2,.18-3,.3-4.12.53-6.52,2.85-6.95,7-.25,2.51-.23,5.05-.26,7.57C85.82,103.93,85.85,107.92,85.85,112.13Z"/></g></g></svg>