<svg xmlns="http://www.w3.org/2000/svg" viewBox="0 0 107.18 68.31">
  <defs>
    <style>
      .cls-1 {
        fill: #fff;
      }
    </style>
  </defs>
  <g id="Camada_2" data-name="Camada 2">
    <g id="Camada_1-2" data-name="Camada 1">
      <path
        class="cls-1"
        d="M69.82,19.88c4.5-1,8.69-1.93,12.92-2.76a40.63,40.63,0,0,1,5.71-.68c2-.11,2.87.84,2.49,2.79-1.07,5.5-2.28,11-3.45,16.48-.11.53-.29,1-.44,1.56l.26.41a73.24,73.24,0,0,0,7.51-2.46A67,67,0,0,0,102.56,31c1.83-1.11,2.88-1.45,3.81-.63,1.3,1.15.77,2.44.21,3.73-4.23,9.74-9.69,18.63-18,25.54-4.38,3.67-9.12,6.78-14.83,8-8,1.72-15-.52-21.25-5.56-2.34-1.88-2.6-2-4.95-.19a30.68,30.68,0,0,1-20.93,6.4c-11.48-.7-23.08-8.79-25.9-20.2-3.11-12.58,3.42-25.7,15.38-29.18a23.25,23.25,0,0,1,5.4-.72c1.38-.06,2.11.9,2.11,2.27a1.91,1.91,0,0,1-2.06,2.16c-7.46-.49-14.5,6.05-16.48,14A20.83,20.83,0,0,0,15,59.75c9.67,5.7,19.4,5.59,28.9-.64a11.18,11.18,0,0,0,1-.77c1.74-1.42,1.77-1.77.35-3.5C37.2,45.06,36.82,33,44.14,22.63c6.8-9.6,16-16.08,26.56-20.85,1-.46,2.06-.91,3.1-1.33,1.76-.71,2.85-.58,3.58.43,1,1.31.26,2.39-.53,3.43a37.15,37.15,0,0,0-6.16,12.24C70.39,17.61,70.13,18.69,69.82,19.88ZM69.21,7.64C62,11.43,55.32,15.91,50.07,22.22a26.63,26.63,0,0,0-6.41,13.39,41.25,41.25,0,0,0,.08,6.57l.58.11c1.13-4.47,4.23-7.67,6.89-11.15a9,9,0,0,1,2.26-2,1.88,1.88,0,0,1,2.6.64,1.89,1.89,0,0,1,.13,2.56,23.08,23.08,0,0,1-1.85,2.11c-3.24,3.34-5.61,7.14-6.22,11.85a8.88,8.88,0,0,0,2.12,6.93c5.75-6,10-12.54,12.07-20.4.92-3.53,1.59-7.12,2.35-10.69A64.05,64.05,0,0,1,69.21,7.64ZM99.3,38.37c-6.06,2.84-12.51,4-19,5.08-8.93,1.44-17,4.67-24,10.64-.9.77-1.81,1.53-2.76,2.33,2,1.84,4.18,2.82,6.68,2.41a27.69,27.69,0,0,0,5.77-1.7c3.1-1.25,5.46-3.58,7.87-5.81a2.17,2.17,0,0,1,3.36,0,2.2,2.2,0,0,1-.21,3.36c-3.33,3.05-6.81,5.9-11.15,7.44-.53.19-1,.42-1.55.63a17.35,17.35,0,0,0,11-.34c5.2-1.73,9.42-5,13.18-8.85A59.33,59.33,0,0,0,99.3,38.37ZM86.19,21.46,85.76,21c-5.05,1.21-10.1,2.39-15.14,3.65A3,3,0,0,0,68.26,27a47.81,47.81,0,0,1-1.14,5.18c-1.05,3.29-2.27,6.52-3.41,9.78-.22.63-.43,1.26-.74,2.16l1.2-.53a60.56,60.56,0,0,1,16.1-4.71A2.54,2.54,0,0,0,82,37.54a70.18,70.18,0,0,0,2.29-7.21C85,27.4,85.56,24.42,86.19,21.46Z"
      />
    </g>
  </g>
</svg>
